<svg width="30" height="27" viewBox="0 0 30 27" fill="none" xmlns="http://www.w3.org/2000/svg">
<path fill-rule="evenodd" clip-rule="evenodd" d="M7.5 2H22.5C25.5376 2 28 4.46243 28 7.5C28 9.64966 26.7667 11.5113 24.9692 12.4159C24.1959 12.1465 23.3651 12 22.5 12H7.5C6.63493 12 5.80406 12.1465 5.03085 12.4159C3.23326 11.5113 2 9.64966 2 7.5C2 4.46243 4.46243 2 7.5 2ZM2.99927 13.5C1.17802 12.1317 0 9.9534 0 7.5C0 3.35786 3.35786 0 7.5 0H22.5C26.6421 0 30 3.35786 30 7.5C30 9.9534 28.822 12.1317 27.0007 13.5C28.822 14.8683 30 17.0466 30 19.5C30 23.6421 26.6421 27 22.5 27H7.5C3.35786 27 0 23.6421 0 19.5C0 17.0466 1.17802 14.8683 2.99927 13.5ZM5.03085 14.5841C3.23326 15.4887 2 17.3503 2 19.5C2 22.5376 4.46243 25 7.5 25H22.5C25.5376 25 28 22.5376 28 19.5C28 17.3503 26.7667 15.4887 24.9692 14.5841C24.1959 14.8535 23.3651 15 22.5 15H7.5C6.63493 15 5.80406 14.8535 5.03085 14.5841Z" fill="black"/>
</svg>
