<svg width="744" height="215" viewBox="0 0 744 215" fill="none" xmlns="http://www.w3.org/2000/svg">
<path d="M113.956 134H101.831V43H113.956V134ZM152.018 93.75H111.331V84H152.018V93.75ZM158.206 52.8125H111.331V43H158.206V52.8125ZM166.393 99.5C166.393 92.9583 167.643 87.1042 170.143 81.9375C172.643 76.7708 176.185 72.6875 180.768 69.6875C185.352 66.6458 190.789 65.125 197.081 65.125C203.456 65.125 208.956 66.6458 213.581 69.6875C218.206 72.6875 221.747 76.7708 224.206 81.9375C226.706 87.1042 227.956 92.9583 227.956 99.5V100.938C227.956 107.438 226.706 113.292 224.206 118.5C221.747 123.667 218.206 127.75 213.581 130.75C208.997 133.75 203.539 135.25 197.206 135.25C190.872 135.25 185.393 133.75 180.768 130.75C176.185 127.75 172.643 123.667 170.143 118.5C167.643 113.292 166.393 107.438 166.393 100.938V99.5ZM178.081 100.938C178.081 105.396 178.789 109.521 180.206 113.312C181.622 117.104 183.727 120.146 186.518 122.438C189.352 124.729 192.914 125.875 197.206 125.875C201.456 125.875 204.977 124.729 207.768 122.438C210.602 120.146 212.727 117.104 214.143 113.312C215.56 109.521 216.268 105.396 216.268 100.938V99.5C216.268 95.0417 215.56 90.9167 214.143 87.125C212.727 83.3333 210.602 80.2917 207.768 78C204.935 75.6667 201.372 74.5 197.081 74.5C192.872 74.5 189.352 75.6667 186.518 78C183.685 80.2917 181.56 83.3333 180.143 87.125C178.768 90.9167 178.081 95.0417 178.081 99.5V100.938ZM254.206 134H242.518V66.375H253.893L254.206 77V134ZM275.268 76.6875C274.268 76.4792 273.331 76.3542 272.456 76.3125C271.622 76.2292 270.664 76.1875 269.581 76.1875C266.039 76.1875 263.039 76.9167 260.581 78.375C258.164 79.8333 256.289 81.8542 254.956 84.4375C253.622 86.9792 252.789 89.8958 252.456 93.1875L249.143 95.0625C249.143 89.6042 249.872 84.625 251.331 80.125C252.789 75.5833 255.06 71.9583 258.143 69.25C261.268 66.5 265.268 65.125 270.143 65.125C270.935 65.125 271.872 65.2292 272.956 65.4375C274.081 65.6042 274.852 65.7917 275.268 66V76.6875ZM311.643 160.688C309.31 160.688 306.56 160.312 303.393 159.562C300.268 158.854 297.185 157.625 294.143 155.875C291.143 154.167 288.622 151.854 286.581 148.938L292.643 142.125C295.477 145.542 298.435 147.917 301.518 149.25C304.643 150.625 307.727 151.312 310.768 151.312C316.227 151.312 320.56 149.75 323.768 146.625C327.018 143.542 328.643 139.042 328.643 133.125V81.25L329.706 66.375H340.331V132.562C340.331 138.521 339.102 143.604 336.643 147.812C334.227 152.021 330.852 155.208 326.518 157.375C322.227 159.583 317.268 160.688 311.643 160.688ZM309.768 135.25C304.352 135.25 299.643 133.771 295.643 130.812C291.685 127.812 288.602 123.729 286.393 118.562C284.227 113.396 283.143 107.521 283.143 100.938V99.625C283.143 92.75 284.227 86.7292 286.393 81.5625C288.56 76.3542 291.643 72.3125 295.643 69.4375C299.643 66.5625 304.393 65.125 309.893 65.125C314.143 65.125 317.852 65.875 321.018 67.375C324.227 68.8333 326.935 70.9583 329.143 73.75C331.393 76.5417 333.164 79.9167 334.456 83.875C335.789 87.8333 336.706 92.2917 337.206 97.25V103.312C336.581 109.854 335.185 115.521 333.018 120.312C330.893 125.062 327.914 128.75 324.081 131.375C320.247 133.958 315.477 135.25 309.768 135.25ZM312.643 125.5C316.477 125.5 319.622 124.688 322.081 123.062C324.539 121.438 326.518 119.292 328.018 116.625C329.518 113.958 330.685 111.062 331.518 107.938V92.75C331.018 90.4583 330.31 88.25 329.393 86.125C328.477 83.9583 327.268 82.0417 325.768 80.375C324.268 78.6667 322.435 77.3125 320.268 76.3125C318.143 75.3125 315.643 74.8125 312.768 74.8125C308.56 74.8125 305.122 75.9375 302.456 78.1875C299.831 80.4375 297.893 83.4583 296.643 87.25C295.435 91 294.831 95.125 294.831 99.625V100.938C294.831 105.438 295.435 109.542 296.643 113.25C297.893 116.958 299.831 119.938 302.456 122.188C305.081 124.396 308.477 125.5 312.643 125.5ZM385.893 135.25C379.602 135.25 374.122 133.854 369.456 131.062C364.831 128.229 361.227 124.354 358.643 119.438C356.102 114.521 354.831 108.896 354.831 102.562V99.875C354.831 92.5417 356.227 86.2917 359.018 81.125C361.852 75.9167 365.518 71.9583 370.018 69.25C374.56 66.5 379.352 65.125 384.393 65.125C390.893 65.125 396.185 66.5833 400.268 69.5C404.393 72.375 407.414 76.3125 409.331 81.3125C411.289 86.2708 412.268 91.8958 412.268 98.1875V103.375H361.768V94H400.581V93.125C400.414 90.125 399.81 87.2083 398.768 84.375C397.727 81.5 396.06 79.1458 393.768 77.3125C391.477 75.4375 388.352 74.5 384.393 74.5C380.893 74.5 377.789 75.5 375.081 77.5C372.414 79.4583 370.31 82.3333 368.768 86.125C367.268 89.875 366.518 94.4583 366.518 99.875V102.562C366.518 106.854 367.31 110.771 368.893 114.312C370.477 117.812 372.768 120.625 375.768 122.75C378.768 124.833 382.352 125.875 386.518 125.875C390.602 125.875 394.06 125.042 396.893 123.375C399.727 121.708 402.206 119.479 404.331 116.688L411.393 122.188C409.227 125.521 406.102 128.542 402.018 131.25C397.977 133.917 392.602 135.25 385.893 135.25ZM456.831 135.25C451.081 135.25 446.289 133.958 442.456 131.375C438.622 128.75 435.643 125.062 433.518 120.312C431.393 115.521 429.997 109.854 429.331 103.312V97.25C429.997 90.625 431.393 84.9167 433.518 80.125C435.643 75.3333 438.602 71.6458 442.393 69.0625C446.227 66.4375 450.997 65.125 456.706 65.125C462.372 65.125 467.164 66.5625 471.081 69.4375C474.997 72.3125 477.977 76.3542 480.018 81.5625C482.06 86.7292 483.081 92.75 483.081 99.625V100.938C483.081 107.521 482.06 113.396 480.018 118.562C477.977 123.729 474.997 127.812 471.081 130.812C467.164 133.771 462.414 135.25 456.831 135.25ZM425.768 134V38H437.456V120.875L436.456 134H425.768ZM453.893 125.5C458.06 125.5 461.414 124.396 463.956 122.188C466.539 119.938 468.414 116.958 469.581 113.25C470.789 109.542 471.393 105.438 471.393 100.938V99.625C471.393 95.125 470.831 91 469.706 87.25C468.581 83.4583 466.727 80.4375 464.143 78.1875C461.602 75.9375 458.143 74.8125 453.768 74.8125C450.893 74.8125 448.372 75.3125 446.206 76.3125C444.081 77.3125 442.268 78.6667 440.768 80.375C439.268 82.0417 438.039 83.9583 437.081 86.125C436.164 88.25 435.477 90.4583 435.018 92.75V107.938C435.685 110.854 436.768 113.667 438.268 116.375C439.768 119.042 441.789 121.229 444.331 122.938C446.914 124.646 450.102 125.5 453.893 125.5ZM535.456 66.375H547.893L520.768 144.438C520.143 146.104 519.31 147.896 518.268 149.812C517.268 151.771 515.977 153.625 514.393 155.375C512.852 157.125 510.956 158.542 508.706 159.625C506.456 160.75 503.789 161.312 500.706 161.312C500.081 161.312 499.331 161.25 498.456 161.125C497.581 161 496.747 160.854 495.956 160.688C495.164 160.562 494.56 160.438 494.143 160.312V151C494.477 151.042 494.997 151.104 495.706 151.188C496.456 151.271 496.977 151.312 497.268 151.312C501.185 151.312 504.247 150.5 506.456 148.875C508.664 147.25 510.456 144.354 511.831 140.188L516.643 127L535.456 66.375ZM520.456 118.938L523.456 131.125L515.081 135.312L490.268 66.375H503.018L520.456 118.938ZM586.706 75.1875H550.081V66.375H586.706V75.1875ZM574.081 49.9375V117.25C574.081 119.583 574.435 121.333 575.143 122.5C575.852 123.667 576.768 124.438 577.893 124.812C579.018 125.188 580.227 125.375 581.518 125.375C582.477 125.375 583.477 125.292 584.518 125.125C585.602 124.958 586.393 124.812 586.893 124.688V134C585.977 134.292 584.789 134.562 583.331 134.812C581.872 135.104 580.102 135.25 578.018 135.25C575.185 135.25 572.581 134.688 570.206 133.562C567.831 132.438 565.935 130.562 564.518 127.938C563.102 125.271 562.393 121.688 562.393 117.188V49.9375H574.081ZM628.268 135.25C621.977 135.25 616.497 133.854 611.831 131.062C607.206 128.229 603.602 124.354 601.018 119.438C598.477 114.521 597.206 108.896 597.206 102.562V99.875C597.206 92.5417 598.602 86.2917 601.393 81.125C604.227 75.9167 607.893 71.9583 612.393 69.25C616.935 66.5 621.727 65.125 626.768 65.125C633.268 65.125 638.56 66.5833 642.643 69.5C646.768 72.375 649.789 76.3125 651.706 81.3125C653.664 86.2708 654.643 91.8958 654.643 98.1875V103.375H604.143V94H642.956V93.125C642.789 90.125 642.185 87.2083 641.143 84.375C640.102 81.5 638.435 79.1458 636.143 77.3125C633.852 75.4375 630.727 74.5 626.768 74.5C623.268 74.5 620.164 75.5 617.456 77.5C614.789 79.4583 612.685 82.3333 611.143 86.125C609.643 89.875 608.893 94.4583 608.893 99.875V102.562C608.893 106.854 609.685 110.771 611.268 114.312C612.852 117.812 615.143 120.625 618.143 122.75C621.143 124.833 624.727 125.875 628.893 125.875C632.977 125.875 636.435 125.042 639.268 123.375C642.102 121.708 644.581 119.479 646.706 116.688L653.768 122.188C651.602 125.521 648.477 128.542 644.393 131.25C640.352 133.917 634.977 135.25 628.268 135.25Z" fill="url(#paint0_linear_210_200)"/>
<path d="M36.284 56.1207C23.9002 36.5677 19.2669 24.1549 18.4891 0C1.88278 19.6681 -2.33704 32.7946 1.1174 59.8621C8.06634 80.403 14.8124 89.6244 28.2336 104.224C47.7585 129.39 55.3337 144.674 54.9261 175.845C71.7403 153.349 75.8406 137.362 65.672 105.828L36.284 56.1207Z" fill="url(#paint1_linear_210_200)"/>
<path d="M28.5979 145.41C20.7843 134.118 17.8608 126.95 17.37 113C6.89218 124.358 4.22965 131.939 6.40926 147.571C10.7937 159.433 15.0502 164.759 23.5184 173.19C35.8378 187.724 40.6174 196.55 40.3602 214.552C50.9693 201.56 53.5564 192.328 47.1405 174.116L28.5979 145.41Z" fill="url(#paint2_linear_210_200)"/>
<defs>
<linearGradient id="paint0_linear_210_200" x1="91.2683" y1="53.4066" x2="577.089" y2="116.949" gradientUnits="userSpaceOnUse">
<stop stop-color="#67F1D1"/>
<stop offset="0.5" stop-color="#81C5EF"/>
<stop offset="0.978228" stop-color="#A054FD"/>
</linearGradient>
<linearGradient id="paint1_linear_210_200" x1="17.1128" y1="5" x2="73.7672" y2="163.22" gradientUnits="userSpaceOnUse">
<stop stop-color="#67F1D1"/>
<stop offset="0.562549" stop-color="#81C5EF"/>
<stop offset="1" stop-color="#A054FD"/>
</linearGradient>
<linearGradient id="paint2_linear_210_200" x1="13.8532" y1="118" x2="54.151" y2="202.911" gradientUnits="userSpaceOnUse">
<stop stop-color="#67F1D1"/>
<stop offset="0.614562" stop-color="#81C5EF"/>
<stop offset="1" stop-color="#A054FD"/>
</linearGradient>
</defs>
</svg>
