<svg width="1169" height="457" viewBox="0 0 1169 457" fill="none" xmlns="http://www.w3.org/2000/svg">
<rect width="1169" height="457" fill="white"/>
<path d="M352.688 255H340.562V164H352.688V255ZM390.75 214.75H350.062V205H390.75V214.75ZM396.938 173.812H350.062V164H396.938V173.812ZM405.125 220.5C405.125 213.958 406.375 208.104 408.875 202.938C411.375 197.771 414.917 193.688 419.5 190.688C424.083 187.646 429.521 186.125 435.812 186.125C442.188 186.125 447.688 187.646 452.312 190.688C456.938 193.688 460.479 197.771 462.938 202.938C465.438 208.104 466.688 213.958 466.688 220.5V221.938C466.688 228.438 465.438 234.292 462.938 239.5C460.479 244.667 456.938 248.75 452.312 251.75C447.729 254.75 442.271 256.25 435.938 256.25C429.604 256.25 424.125 254.75 419.5 251.75C414.917 248.75 411.375 244.667 408.875 239.5C406.375 234.292 405.125 228.438 405.125 221.938V220.5ZM416.812 221.938C416.812 226.396 417.521 230.521 418.938 234.312C420.354 238.104 422.458 241.146 425.25 243.438C428.083 245.729 431.646 246.875 435.938 246.875C440.188 246.875 443.708 245.729 446.5 243.438C449.333 241.146 451.458 238.104 452.875 234.312C454.292 230.521 455 226.396 455 221.938V220.5C455 216.042 454.292 211.917 452.875 208.125C451.458 204.333 449.333 201.292 446.5 199C443.667 196.667 440.104 195.5 435.812 195.5C431.604 195.5 428.083 196.667 425.25 199C422.417 201.292 420.292 204.333 418.875 208.125C417.5 211.917 416.812 216.042 416.812 220.5V221.938ZM492.938 255H481.25V187.375H492.625L492.938 198V255ZM514 197.688C513 197.479 512.062 197.354 511.188 197.312C510.354 197.229 509.396 197.188 508.312 197.188C504.771 197.188 501.771 197.917 499.312 199.375C496.896 200.833 495.021 202.854 493.688 205.438C492.354 207.979 491.521 210.896 491.188 214.188L487.875 216.062C487.875 210.604 488.604 205.625 490.062 201.125C491.521 196.583 493.792 192.958 496.875 190.25C500 187.5 504 186.125 508.875 186.125C509.667 186.125 510.604 186.229 511.688 186.438C512.812 186.604 513.583 186.792 514 187V197.688ZM550.375 281.688C548.042 281.688 545.292 281.312 542.125 280.562C539 279.854 535.917 278.625 532.875 276.875C529.875 275.167 527.354 272.854 525.312 269.938L531.375 263.125C534.208 266.542 537.167 268.917 540.25 270.25C543.375 271.625 546.458 272.312 549.5 272.312C554.958 272.312 559.292 270.75 562.5 267.625C565.75 264.542 567.375 260.042 567.375 254.125V202.25L568.438 187.375H579.062V253.562C579.062 259.521 577.833 264.604 575.375 268.812C572.958 273.021 569.583 276.208 565.25 278.375C560.958 280.583 556 281.688 550.375 281.688ZM548.5 256.25C543.083 256.25 538.375 254.771 534.375 251.812C530.417 248.812 527.333 244.729 525.125 239.562C522.958 234.396 521.875 228.521 521.875 221.938V220.625C521.875 213.75 522.958 207.729 525.125 202.562C527.292 197.354 530.375 193.312 534.375 190.438C538.375 187.562 543.125 186.125 548.625 186.125C552.875 186.125 556.583 186.875 559.75 188.375C562.958 189.833 565.667 191.958 567.875 194.75C570.125 197.542 571.896 200.917 573.188 204.875C574.521 208.833 575.438 213.292 575.938 218.25V224.312C575.312 230.854 573.917 236.521 571.75 241.312C569.625 246.062 566.646 249.75 562.812 252.375C558.979 254.958 554.208 256.25 548.5 256.25ZM551.375 246.5C555.208 246.5 558.354 245.688 560.812 244.062C563.271 242.438 565.25 240.292 566.75 237.625C568.25 234.958 569.417 232.062 570.25 228.938V213.75C569.75 211.458 569.042 209.25 568.125 207.125C567.208 204.958 566 203.042 564.5 201.375C563 199.667 561.167 198.312 559 197.312C556.875 196.312 554.375 195.812 551.5 195.812C547.292 195.812 543.854 196.938 541.188 199.188C538.562 201.438 536.625 204.458 535.375 208.25C534.167 212 533.562 216.125 533.562 220.625V221.938C533.562 226.438 534.167 230.542 535.375 234.25C536.625 237.958 538.562 240.938 541.188 243.188C543.812 245.396 547.208 246.5 551.375 246.5ZM624.625 256.25C618.333 256.25 612.854 254.854 608.188 252.062C603.562 249.229 599.958 245.354 597.375 240.438C594.833 235.521 593.562 229.896 593.562 223.562V220.875C593.562 213.542 594.958 207.292 597.75 202.125C600.583 196.917 604.25 192.958 608.75 190.25C613.292 187.5 618.083 186.125 623.125 186.125C629.625 186.125 634.917 187.583 639 190.5C643.125 193.375 646.146 197.312 648.062 202.312C650.021 207.271 651 212.896 651 219.188V224.375H600.5V215H639.312V214.125C639.146 211.125 638.542 208.208 637.5 205.375C636.458 202.5 634.792 200.146 632.5 198.312C630.208 196.438 627.083 195.5 623.125 195.5C619.625 195.5 616.521 196.5 613.812 198.5C611.146 200.458 609.042 203.333 607.5 207.125C606 210.875 605.25 215.458 605.25 220.875V223.562C605.25 227.854 606.042 231.771 607.625 235.312C609.208 238.812 611.5 241.625 614.5 243.75C617.5 245.833 621.083 246.875 625.25 246.875C629.333 246.875 632.792 246.042 635.625 244.375C638.458 242.708 640.938 240.479 643.062 237.688L650.125 243.188C647.958 246.521 644.833 249.542 640.75 252.25C636.708 254.917 631.333 256.25 624.625 256.25ZM695.562 256.25C689.812 256.25 685.021 254.958 681.188 252.375C677.354 249.75 674.375 246.062 672.25 241.312C670.125 236.521 668.729 230.854 668.062 224.312V218.25C668.729 211.625 670.125 205.917 672.25 201.125C674.375 196.333 677.333 192.646 681.125 190.062C684.958 187.438 689.729 186.125 695.438 186.125C701.104 186.125 705.896 187.562 709.812 190.438C713.729 193.312 716.708 197.354 718.75 202.562C720.792 207.729 721.812 213.75 721.812 220.625V221.938C721.812 228.521 720.792 234.396 718.75 239.562C716.708 244.729 713.729 248.812 709.812 251.812C705.896 254.771 701.146 256.25 695.562 256.25ZM664.5 255V159H676.188V241.875L675.188 255H664.5ZM692.625 246.5C696.792 246.5 700.146 245.396 702.688 243.188C705.271 240.938 707.146 237.958 708.312 234.25C709.521 230.542 710.125 226.438 710.125 221.938V220.625C710.125 216.125 709.562 212 708.438 208.25C707.312 204.458 705.458 201.438 702.875 199.188C700.333 196.938 696.875 195.812 692.5 195.812C689.625 195.812 687.104 196.312 684.938 197.312C682.812 198.312 681 199.667 679.5 201.375C678 203.042 676.771 204.958 675.812 207.125C674.896 209.25 674.208 211.458 673.75 213.75V228.938C674.417 231.854 675.5 234.667 677 237.375C678.5 240.042 680.521 242.229 683.062 243.938C685.646 245.646 688.833 246.5 692.625 246.5ZM774.188 187.375H786.625L759.5 265.438C758.875 267.104 758.042 268.896 757 270.812C756 272.771 754.708 274.625 753.125 276.375C751.583 278.125 749.688 279.542 747.438 280.625C745.188 281.75 742.521 282.312 739.438 282.312C738.812 282.312 738.062 282.25 737.188 282.125C736.312 282 735.479 281.854 734.688 281.688C733.896 281.562 733.292 281.438 732.875 281.312V272C733.208 272.042 733.729 272.104 734.438 272.188C735.188 272.271 735.708 272.312 736 272.312C739.917 272.312 742.979 271.5 745.188 269.875C747.396 268.25 749.188 265.354 750.562 261.188L755.375 248L774.188 187.375ZM759.188 239.938L762.188 252.125L753.812 256.312L729 187.375H741.75L759.188 239.938ZM825.438 196.188H788.812V187.375H825.438V196.188ZM812.812 170.938V238.25C812.812 240.583 813.167 242.333 813.875 243.5C814.583 244.667 815.5 245.438 816.625 245.812C817.75 246.188 818.958 246.375 820.25 246.375C821.208 246.375 822.208 246.292 823.25 246.125C824.333 245.958 825.125 245.812 825.625 245.688V255C824.708 255.292 823.521 255.562 822.062 255.812C820.604 256.104 818.833 256.25 816.75 256.25C813.917 256.25 811.312 255.688 808.938 254.562C806.562 253.438 804.667 251.562 803.25 248.938C801.833 246.271 801.125 242.688 801.125 238.188V170.938H812.812ZM867 256.25C860.708 256.25 855.229 254.854 850.562 252.062C845.938 249.229 842.333 245.354 839.75 240.438C837.208 235.521 835.938 229.896 835.938 223.562V220.875C835.938 213.542 837.333 207.292 840.125 202.125C842.958 196.917 846.625 192.958 851.125 190.25C855.667 187.5 860.458 186.125 865.5 186.125C872 186.125 877.292 187.583 881.375 190.5C885.5 193.375 888.521 197.312 890.438 202.312C892.396 207.271 893.375 212.896 893.375 219.188V224.375H842.875V215H881.688V214.125C881.521 211.125 880.917 208.208 879.875 205.375C878.833 202.5 877.167 200.146 874.875 198.312C872.583 196.438 869.458 195.5 865.5 195.5C862 195.5 858.896 196.5 856.188 198.5C853.521 200.458 851.417 203.333 849.875 207.125C848.375 210.875 847.625 215.458 847.625 220.875V223.562C847.625 227.854 848.417 231.771 850 235.312C851.583 238.812 853.875 241.625 856.875 243.75C859.875 245.833 863.458 246.875 867.625 246.875C871.708 246.875 875.167 246.042 878 244.375C880.833 242.708 883.312 240.479 885.438 237.688L892.5 243.188C890.333 246.521 887.208 249.542 883.125 252.25C879.083 254.917 873.708 256.25 867 256.25Z" fill="url(#paint0_linear_210_195)"/>
<path d="M262.526 177.121C247.329 157.568 241.643 145.155 240.689 121C220.31 140.668 215.132 153.795 219.371 180.862C227.899 201.403 236.177 210.624 252.647 225.224C276.607 250.39 285.903 265.674 285.403 296.845C306.036 274.349 311.068 258.362 298.589 226.828L262.526 177.121Z" fill="url(#paint1_linear_210_195)"/>
<path d="M253.094 266.41C243.505 255.118 239.918 247.95 239.316 234C226.458 245.358 223.19 252.939 225.865 268.571C231.246 280.433 236.469 285.759 246.861 294.19C261.978 308.724 267.844 317.55 267.528 335.552C280.547 322.56 283.722 313.328 275.848 295.116L253.094 266.41Z" fill="url(#paint2_linear_210_195)"/>
<defs>
<linearGradient id="paint0_linear_210_195" x1="330" y1="174.407" x2="921.145" y2="269.287" gradientUnits="userSpaceOnUse">
<stop stop-color="#67F1D1"/>
<stop offset="0.5" stop-color="#81C5EF"/>
<stop offset="0.978228" stop-color="#A054FD"/>
</linearGradient>
<linearGradient id="paint1_linear_210_195" x1="239" y1="126" x2="287" y2="290.5" gradientUnits="userSpaceOnUse">
<stop stop-color="#67F1D1"/>
<stop offset="0.562549" stop-color="#81C5EF"/>
<stop offset="1" stop-color="#A054FD"/>
</linearGradient>
<linearGradient id="paint2_linear_210_195" x1="235" y1="239" x2="270" y2="329.5" gradientUnits="userSpaceOnUse">
<stop stop-color="#67F1D1"/>
<stop offset="0.614562" stop-color="#81C5EF"/>
<stop offset="1" stop-color="#A054FD"/>
</linearGradient>
</defs>
</svg>
